<svg width="40" height="40" viewBox="0 0 40 40" fill="none" xmlns="http://www.w3.org/2000/svg">
<rect width="40" height="40" rx="20" fill="black" fill-opacity="0.5"/>
<path fill-rule="evenodd" clip-rule="evenodd" d="M19.9918 11.8624C17.5926 9.05752 13.5917 8.30301 10.5856 10.8715C7.57957 13.4399 7.15636 17.7342 9.51704 20.7719C11.4798 23.2976 17.4197 28.6243 19.3665 30.3484C19.5843 30.5413 19.6932 30.6378 19.8203 30.6757C19.9311 30.7087 20.0524 30.7087 20.1633 30.6757C20.2903 30.6378 20.3992 30.5413 20.617 30.3484C22.5638 28.6243 28.5038 23.2976 30.4665 20.7719C32.8272 17.7342 32.4557 13.4129 29.3979 10.8715C26.3402 8.33003 22.391 9.05752 19.9918 11.8624Z" fill="#DF0E0E"/>
</svg>
