<svg width="40" height="40" viewBox="0 0 40 40" fill="none" xmlns="http://www.w3.org/2000/svg">
<rect width="40" height="39.401" rx="19.7005" fill="black" fill-opacity="0.5"/>
<path fill-rule="evenodd" clip-rule="evenodd" d="M19.9918 11.563C17.5926 8.75808 13.5917 8.00357 10.5856 10.572C7.57957 13.1405 7.15636 17.4348 9.51704 20.4725C11.4798 22.9981 17.4197 28.3249 19.3665 30.049C19.5843 30.2419 19.6932 30.3383 19.8203 30.3762C19.9311 30.4093 20.0524 30.4093 20.1633 30.3762C20.2903 30.3383 20.3992 30.2419 20.617 30.049C22.5638 28.3249 28.5038 22.9981 30.4665 20.4725C32.8272 17.4348 32.4557 13.1134 29.3979 10.572C26.3402 8.03059 22.391 8.75808 19.9918 11.563Z" fill="#E5E3E3"/>
</svg>
