<svg width="34" height="29" viewBox="0 0 34 29" fill="none" xmlns="http://www.w3.org/2000/svg">
<path d="M17.5229 26.0354C17.45 25.8 17.3385 25.5832 17.1965 25.3912C16.7976 24.8517 16.1588 24.5086 15.4534 24.5088C15.3846 24.5088 15.3149 24.512 15.245 24.5187C15.065 24.5358 14.8936 24.5768 14.7305 24.6341C14.4974 24.7161 14.2833 24.8349 14.0958 24.985C13.9383 25.1113 13.8 25.2587 13.6833 25.4226C13.3913 25.8329 13.2384 26.3449 13.2899 26.8855C13.3969 28.0089 14.3422 28.8504 15.4482 28.8504C15.517 28.8504 15.5867 28.8472 15.6567 28.8405C16.7977 28.7319 17.6456 27.758 17.6187 26.6298C17.6175 26.578 17.6168 26.5261 17.6118 26.4737C17.5973 26.3218 17.5663 26.1757 17.5229 26.0354Z" fill="#2D2D2C"/>
<path d="M29.0526 23.8343C28.8924 23.7037 28.7142 23.5955 28.522 23.5146C28.284 23.4143 28.0258 23.3562 27.7567 23.3471C27.7323 23.3463 27.7084 23.3438 27.6839 23.3438C27.6151 23.3438 27.5454 23.347 27.4754 23.3536C26.7487 23.4229 26.1415 23.8439 25.8022 24.4313C25.6714 24.6578 25.5816 24.9088 25.5396 25.1745C25.5115 25.3514 25.5027 25.5338 25.5204 25.7204C25.5226 25.7439 25.5273 25.7664 25.5303 25.7897C25.669 26.878 26.5957 27.6855 27.6787 27.6855C27.7475 27.6855 27.8172 27.6823 27.8872 27.6756C29.0806 27.562 29.9559 26.5023 29.8422 25.3088C29.7851 24.7073 29.4863 24.1883 29.0526 23.8343Z" fill="#2D2D2C"/>
<path d="M9.53319 12.7134L9.15555 8.74974C8.97249 6.8279 7.3496 5.38379 5.4567 5.38379C5.33933 5.38379 5.22049 5.3894 5.10121 5.40077L1.55101 5.73899C0.60899 5.82875 -0.0819149 6.66521 0.00784384 7.60724C0.0922879 8.49405 0.838406 9.15823 1.71149 9.15823C1.76581 9.15823 1.82088 9.15557 1.87609 9.15041L5.42629 8.81219C5.43559 8.8113 5.44489 8.81086 5.45419 8.81086C5.60256 8.81086 5.72981 8.92424 5.74413 9.07482L6.12177 13.0385C6.19175 13.773 6.31856 14.4884 6.49586 15.1818C6.70225 14.9703 6.96148 14.8077 7.25837 14.716L9.72629 13.9541C9.63845 13.5493 9.57335 13.1355 9.53319 12.7134Z" fill="#DFDFD6"/>
<path d="M33.9366 10.3879L33.7409 8.3342C33.6564 7.44739 32.9103 6.7832 32.0372 6.7832C31.9828 6.7832 31.928 6.78586 31.8726 6.79103C30.9305 6.88079 30.2397 7.71726 30.3295 8.65928L30.5251 10.713C30.5531 11.0069 30.5655 11.2986 30.5691 11.5887C30.6142 15.2155 28.7906 18.5069 25.9323 20.4459C24.5168 21.4062 22.8488 22.0352 21.0291 22.2087C20.6903 22.241 20.3547 22.2567 20.0211 22.2567C18.6927 22.2567 17.4116 22.0051 16.2272 21.5448C15.0991 21.1065 14.0605 20.4767 13.1523 19.6944L12.8624 20.5275C12.6055 21.2654 11.9345 21.7422 11.153 21.7422C10.4015 21.7422 9.73987 21.2896 9.4672 20.5889L8.85247 19.0093L7.81006 18.4817C9.1247 20.8449 11.0994 22.7707 13.461 24.0342C13.9445 23.6689 14.5188 23.4402 15.1372 23.3813C15.2422 23.3713 15.3488 23.3663 15.4542 23.3663H15.4543C16.9049 23.3663 18.1385 24.2894 18.5845 25.6074C19.0571 25.6564 19.5351 25.6836 20.0184 25.6836C20.46 25.6836 20.9057 25.6627 21.354 25.62C22.4178 25.5186 23.4409 25.2959 24.4153 24.9737C24.5089 24.4022 24.7486 23.8625 25.1273 23.4041C25.6908 22.7217 26.4864 22.2998 27.3673 22.2159C27.4722 22.2059 27.5788 22.2009 27.6842 22.2009C28.1339 22.2009 28.5622 22.2914 28.9537 22.4529C32.3809 19.5967 34.3907 15.1542 33.9366 10.3879Z" fill="#DFDFD6"/>
<path d="M29.3518 10.4426C28.7461 10.0316 28.0315 9.71601 27.22 9.50371C29.0344 8.36963 29.8636 6.66864 29.6792 4.73366C29.3787 1.57822 26.481 -0.458619 20.7358 0.0887913L13.3488 0.792542C11.2799 0.989627 9.76239 2.82673 9.95963 4.89561L10.7536 13.2283C10.7747 13.3579 10.7986 13.4868 10.825 13.6148L12.385 13.133C12.5607 13.0789 12.7417 13.0513 12.923 13.0513C13.5047 13.0513 14.0552 13.3371 14.3954 13.8158C14.7382 14.2981 14.8228 14.8962 14.6277 15.4569L13.5599 18.5246C13.6149 18.5769 13.6691 18.6299 13.7257 18.681C15.4621 20.2504 17.6979 21.1146 20.0213 21.1146C20.3195 21.1146 20.6223 21.1002 20.921 21.0717C23.4163 20.834 25.6724 19.6354 27.2736 17.697C28.8748 15.7586 29.6258 13.3168 29.388 10.8215L29.3518 10.4426ZM16.9768 5.40331L20.2512 5.09136C21.8287 4.94108 22.5942 5.40877 22.6907 6.42092C22.7872 7.43306 22.1237 8.03687 20.5461 8.18715L17.2717 8.4991L16.9768 5.40331ZM22.2533 16.0148L18.0262 16.4175L17.7143 13.1429L21.9414 12.7402C23.4891 12.5927 24.317 13.0846 24.4192 14.1563C24.5212 15.2279 23.8011 15.8673 22.2533 16.0148Z" fill="#7B7B75"/>
<path d="M12.9232 14.085C12.8473 14.085 12.7691 14.0963 12.6901 14.1207L7.5638 15.7034C6.89696 15.9094 6.8196 16.8222 7.4423 17.1373L9.40769 18.1322C9.57835 18.2186 9.71107 18.3649 9.78045 18.5432L10.4309 20.2147C10.5596 20.5455 10.8567 20.7092 11.1536 20.7092C11.4602 20.7092 11.7665 20.5345 11.887 20.1883L13.652 15.1173C13.8339 14.5944 13.4313 14.085 12.9232 14.085Z" fill="#FFD700"/>
</svg>
