<svg width="50" height="44" viewBox="0 0 50 44" fill="none" xmlns="http://www.w3.org/2000/svg">
<path d="M25.769 39.074C25.6618 38.7277 25.4979 38.409 25.289 38.1266C24.7024 37.3333 23.763 36.8287 22.7257 36.8289C22.6245 36.8289 22.5221 36.8337 22.4191 36.8435C22.1545 36.8687 21.9024 36.929 21.6625 37.0133C21.3197 37.1337 21.0049 37.3085 20.7292 37.5293C20.4976 37.7149 20.2941 37.9318 20.1226 38.1728C19.6932 38.7761 19.4683 39.529 19.5441 40.3241C19.7015 41.9762 21.0916 43.2137 22.7181 43.2137C22.8193 43.2137 22.9217 43.2089 23.0246 43.1992C24.7026 43.0394 25.9494 41.6071 25.9099 39.948C25.9082 39.8718 25.9071 39.7956 25.8997 39.7186C25.8785 39.4952 25.8329 39.2802 25.769 39.074Z" fill="#2D2D2C"/>
<path d="M42.7248 35.8367C42.4893 35.6446 42.2272 35.4854 41.9445 35.3665C41.5946 35.2191 41.2149 35.1335 40.8191 35.1203C40.7833 35.119 40.7481 35.1153 40.7121 35.1153C40.6109 35.1153 40.5084 35.1201 40.4055 35.1298C39.3367 35.2316 38.4438 35.8508 37.9449 36.7147C37.7525 37.0477 37.6205 37.4168 37.5587 37.8076C37.5174 38.0677 37.5044 38.336 37.5304 38.6104C37.5337 38.6449 37.5406 38.6779 37.545 38.7122C37.7491 40.3127 39.1118 41.5003 40.7045 41.5003C40.8056 41.5003 40.9081 41.4955 41.011 41.4857C42.7661 41.3185 44.0533 39.7602 43.8861 38.0051C43.8021 37.1204 43.3627 36.3573 42.7248 35.8367Z" fill="#2D2D2C"/>
<path d="M14.0194 19.4826L13.464 13.6536C13.1948 10.8274 10.8082 8.70367 8.02456 8.70367C7.85196 8.70367 7.67719 8.71192 7.50177 8.72864L2.2809 9.22602C0.895574 9.35802 -0.120463 10.5881 0.0115351 11.9734C0.135717 13.2776 1.23295 14.2543 2.51689 14.2543C2.59679 14.2543 2.67777 14.2504 2.75896 14.2428L7.97983 13.7454C7.99351 13.7441 8.00719 13.7435 8.02087 13.7435C8.23905 13.7435 8.4262 13.9102 8.44726 14.1317L9.0026 19.9606C9.10551 21.0407 9.292 22.0928 9.55274 23.1125C9.85625 22.8014 10.2375 22.5624 10.6741 22.4276L14.3034 21.3071C14.1742 20.7118 14.0784 20.1033 14.0194 19.4826Z" fill="#DFDFD6"/>
<path d="M49.9065 16.0631L49.6187 13.043C49.4945 11.7389 48.3972 10.7622 47.1133 10.7622C47.0332 10.7622 46.9526 10.7661 46.8712 10.7737C45.4857 10.9057 44.4699 12.1358 44.6019 13.5211L44.8895 16.5412C44.9308 16.9735 44.949 17.4024 44.9542 17.8291C45.0207 23.1626 42.3388 28.0029 38.1355 30.8543C36.0539 32.2666 33.6009 33.1916 30.9249 33.4467C30.4266 33.4943 29.9331 33.5173 29.4425 33.5173C27.489 33.5173 25.605 33.1473 23.8632 32.4704C22.2043 31.8258 20.677 30.8997 19.3414 29.7493L18.915 30.9744C18.5372 32.0594 17.5505 32.7607 16.4012 32.7607C15.2961 32.7607 14.3231 32.0951 13.9221 31.0647L13.0181 28.7417L11.4851 27.9658C13.4184 31.4411 16.3224 34.2732 19.7953 36.1312C20.5064 35.5941 21.3509 35.2578 22.2603 35.1712C22.4147 35.1564 22.5714 35.149 22.7264 35.149H22.7267C24.8599 35.149 26.674 36.5066 27.3299 38.4449C28.0248 38.5169 28.7278 38.5569 29.4386 38.5569C30.0879 38.5569 30.7434 38.5261 31.4027 38.4633C32.9671 38.3142 34.4717 37.9868 35.9045 37.5128C36.0422 36.6724 36.3948 35.8787 36.9516 35.2046C37.7803 34.2012 38.9503 33.5807 40.2457 33.4574C40.4001 33.4426 40.5568 33.4352 40.7118 33.4352C41.3731 33.4352 42.0029 33.5683 42.5787 33.8058C47.6187 29.6055 50.5743 23.0725 49.9065 16.0631Z" fill="#DFDFD6"/>
<path d="M43.1646 16.1431C42.2738 15.5387 41.223 15.0746 40.0296 14.7624C42.6978 13.0946 43.9173 10.5931 43.6461 7.74758C43.2041 3.10724 38.9428 0.111884 30.4941 0.916899L19.6307 1.95183C16.5882 2.24166 14.3566 4.94328 14.6467 7.98575L15.8143 20.2396C15.8453 20.4303 15.8805 20.6198 15.9194 20.808L18.2135 20.0996C18.4718 20.0199 18.738 19.9793 19.0046 19.9793C19.86 19.9793 20.6695 20.3996 21.17 21.1037C21.6741 21.813 21.7985 22.6925 21.5115 23.517L19.9412 28.0284C20.0221 28.1053 20.1018 28.1832 20.185 28.2583C22.7385 30.5663 26.0265 31.8372 29.4433 31.8372C29.8818 31.8372 30.3271 31.816 30.7663 31.7741C34.436 31.4245 37.7537 29.6619 40.1084 26.8113C42.4631 23.9608 43.5675 20.3699 43.2178 16.7002L43.1646 16.1431ZM24.966 8.73236L29.7813 8.27362C32.1013 8.05261 33.227 8.74039 33.3689 10.2288C33.5107 11.7173 32.535 12.6052 30.2151 12.8263L25.3998 13.285L24.966 8.73236ZM32.7257 24.3374L26.5094 24.9297L26.0506 20.1142L32.2669 19.5219C34.543 19.305 35.7605 20.0284 35.9108 21.6043C36.0608 23.1803 35.0018 24.1206 32.7257 24.3374Z" fill="#7B7B75"/>
<path d="M19.0042 21.4994C18.8926 21.4994 18.7775 21.5161 18.6614 21.552L11.1227 23.8795C10.142 24.1824 10.0283 25.5247 10.944 25.9882L13.8343 27.4513C14.0853 27.5783 14.2804 27.7934 14.3825 28.0557L15.339 30.5137C15.5283 31.0003 15.9652 31.241 16.4018 31.241C16.8527 31.241 17.3032 30.984 17.4803 30.4749L20.076 23.0176C20.3435 22.2486 19.7514 21.4994 19.0042 21.4994Z" fill="#FFD700"/>
</svg>
