<svg width="72" height="72" viewBox="0 0 72 72" fill="none" xmlns="http://www.w3.org/2000/svg">
<rect x="72" y="72" width="72" height="72" rx="36" transform="rotate(180 72 72)" fill="black" fill-opacity="0.05"/>
<path d="M32 24.44C32.2533 24.44 32.5066 24.5333 32.7066 24.7333L41.4 33.4267C42.8133 34.84 42.8133 37.16 41.4 38.5733L32.7066 47.2667C32.32 47.6533 31.68 47.6533 31.2933 47.2667C30.9066 46.88 30.9066 46.24 31.2933 45.8533L39.9866 37.16C40.6266 36.52 40.6266 35.48 39.9866 34.84L31.2933 26.1467C30.9066 25.76 30.9066 25.12 31.2933 24.7333C31.4933 24.5467 31.7466 24.44 32 24.44Z" fill="black"/>
</svg>
