<svg width="40" height="41" viewBox="0 0 40 41" fill="none" xmlns="http://www.w3.org/2000/svg">
<rect width="40" height="40.401" rx="20" fill="#F0F0F0"/>
<path fill-rule="evenodd" clip-rule="evenodd" d="M19.9918 12.563C17.5926 9.75808 13.5917 9.00357 10.5856 11.572C7.57957 14.1405 7.15636 18.4348 9.51704 21.4725C11.4798 23.9981 17.4197 29.3249 19.3665 31.049C19.5843 31.2419 19.6932 31.3383 19.8203 31.3762C19.9311 31.4093 20.0524 31.4093 20.1633 31.3762C20.2903 31.3383 20.3992 31.2419 20.617 31.049C22.5638 29.3249 28.5038 23.9981 30.4665 21.4725C32.8272 18.4348 32.4557 14.1134 29.3979 11.572C26.3402 9.03059 22.391 9.75808 19.9918 12.563Z" fill="#C8C8C8"/>
</svg>
